<?xml version="1.0" encoding="UTF-8"?>
<svg version="1.1" viewBox="0 0 2048 830" width="1280" height="1280" xmlns="http://www.w3.org/2000/svg">
<path transform="translate(1558,75)" d="m0 0h99l7 2 5 4 9 14 13 21 45 72 12 19 15 24 12 19 30 48 8 12 1-226 4-6 5-3h87l7 2 5 6v408l-5 6-3 1h-100l-6-5-9-14-34-56-15-25-85-140-8-13-1 243-2 6-5 4h-93l-6-5-1-2v-408l4-6z" fill="#B32405"/>
<path transform="translate(53,75)" d="m0 0h89l7 2 6 7 1 253 2 17 5 15 6 11 9 10 9 7 11 5 11 3 6 1h19l16-4 14-7 10-9 7-9 7-14 4-15 1-7 1-256 3-6 4-3 3-1h89l7 2 4 5 1 2v263l-3 26-6 25-8 20-8 15-10 14-9 10-10 10-17 12-15 8-18 7-24 6-19 3-10 1h-48l-27-4-20-5-19-7-16-8-12-8-11-9-13-13-12-17-9-16-8-20-6-25-3-27v-261l4-6z" fill="#B32405"/>
<path transform="translate(1017,75)" d="m0 0h96l7 2 5 6 5 14 33 98 14 42 14 41 21 63 2-3 15-42 20-61 18-56 15-46 17-48 4-6 7-4h98l6 2 3 4v8l-21 55-22 57-100 260-8 20-6 11-6 5-2 1h-80l-5-3-8-14-11-28-16-42-18-47-21-55-18-47-21-55-36-94-10-27 1-7 3-3z" fill="#B32506"/>
<path transform="translate(749,69)" d="m0 0h40l22 3 21 5 22 8 16 8 16 9 9 7 4 5v8l-6 10-12 17-28 40-7 9-6 2-10-5-13-8-14-6-16-4-7-1h-26l-16 3-16 6-14 8-11 9-10 10-9 13-8 16-6 18-3 21v14l3 21 6 18 8 16 9 12 8 9 14 11 17 9 16 5 11 2h29l18-4 15-6 11-6 11-7 5-1 7 4 48 69 3 5v8l-4 6-14 9-25 13-25 9-20 5-21 3h-44l-21-3-20-5-20-7-25-12-17-11-13-10-12-11-16-16-13-17-11-17-8-15-8-20-7-24-4-24-1-12v-26l2-19 4-21 7-23 8-18 11-21 12-17 8-10 11-12 11-11 14-11 18-12 23-12 21-8 17-5 22-4z" fill="#B32405"/>
<path transform="translate(391,676)" d="m0 0h8l7 22 18 63 2 9 2-4 10-34 17-56h9l3 6 17 56 10 34 15-53 12-42 1-1h8l-4 16-18 61-10 33-5 1-4-4-17-56-12-40-9 31-20 67-2 2h-5l-2-2-18-61-12-41z" fill="#120403"/>
<path transform="translate(155,676)" d="m0 0h8l8 10 13 19 12 16 13 19 12 16 12 17v-97h8v110l-1 1h-6l-5-5-26-36-12-17-13-18-12-17-3-4v96l-1 1h-7z" fill="#110403"/>
<path transform="translate(1613,674)" d="m0 0h13l14 3 12 6 10 10 7 14 3 12v25l-4 15-6 10-8 9-10 6-15 4h-20l-11-3-10-5-9-8-7-11-4-11-2-14v-9l2-15 5-13 7-9 7-7 12-6zm-4 8-12 4-8 6-6 7-4 8-3 10-1 8v12l3 16 4 9 6 8 8 6 10 4 5 1h17l13-4 9-6 7-9 4-9 2-9v-26l-4-14-6-9-9-8-10-4-4-1z" fill="#120503"/>
<path transform="translate(316,674)" d="m0 0h13l14 3 12 6 10 10 7 14 3 12v25l-4 15-6 10-8 9-10 6-15 4h-20l-11-3-10-5-9-8-7-11-4-11-2-14v-9l2-15 5-13 7-9 7-7 12-6zm-4 8-12 4-8 6-6 7-4 8-3 10-1 8v12l3 16 4 9 6 8 8 6 10 4 5 1h17l13-4 9-6 7-9 4-9 2-9v-26l-4-14-6-9-9-8-10-4-4-1z" fill="#120403"/>
<path transform="translate(1740,674)" d="m0 0h13l14 3 12 6 8 7 7 11 4 11 2 14v11l-3 17-7 14-9 10-10 6-15 4h-20l-14-4-9-6-9-9-7-14-3-12-1-14 2-16 5-13 7-10 9-8 13-6zm-3 8-10 3-10 6-6 7-6 12-2 10v23l3 12 5 10 6 7 10 6 12 3h16l11-3 8-4 8-8 6-12 3-16v-13l-2-13-5-12-7-9-10-6-10-3z" fill="#120503"/>
<path transform="translate(1225,674)" d="m0 0h13l14 3 11 6 9 8 6 10 4 10 2 12v17l-3 14-4 10-7 9-9 8-11 5-10 2h-20l-13-4-9-5-9-9-6-10-4-13-1-6v-20l3-14 6-12 9-10 10-6 7-3zm-4 8-10 3-8 5-5 5-6 8-4 12-1 6v20l3 14 5 10 4 5 10 7 8 3 6 1h17l13-4 8-6 7-8 5-12 2-12v-17l-3-14-5-10-7-8-14-7-5-1z" fill="#120503"/>
<path transform="translate(1827,676)" d="m0 0h43l14 3 10 4 9 7 7 8 5 12 2 9v23l-3 13-6 11-7 8-10 6-10 4-10 2-11 1h-32l-1-1zm8 7v97h30l12-2 12-5 10-9 6-10 3-11v-24l-4-13-6-9-8-7-11-5-10-2z" fill="#160503"/>
<path transform="translate(729,676)" d="m0 0h42l15 3 14 7 8 7 6 10 4 12 1 7v17l-3 14-4 9-6 8-9 8-11 5-13 3-12 1h-32zm8 7v97h30l15-3 13-7 8-9 4-8 3-14v-17l-3-13-6-11-9-8-12-5-9-2z" fill="#150503"/>
<path transform="translate(893,674)" d="m0 0h14l17 3 10 3-2 7-7-1-12-3-7-1h-14l-14 3-10 5-9 8-6 10-4 16v16l3 14 5 10 8 8 10 5 11 3 17 1 17-2 7-1v-40h-35v-7h44v50l-6 3-13 3-8 1h-24l-16-4-12-7-9-10-5-10-3-11-1-8v-13l2-11 4-10 6-10 7-7 11-7 11-4z" fill="#120403"/>
<path transform="translate(1501,674)" d="m0 0h15l17 3 9 3-1 6-5 1-14-4-8-1h-14l-16 4-10 6-7 7-5 9-3 8-2 16 2 17 5 12 7 9 12 7 12 3 16 1 17-2 7-2 1-39h-35v-7h43l1 4-1 47-14 4-12 2h-25l-15-4-11-6-9-9-8-16-2-10-1-13 2-15 5-12 6-9 8-8 12-7 14-4z" fill="#100403"/>
<path transform="translate(1312,676)" d="m0 0h38l14 3 8 4 5 4 5 9 1 5v10l-3 10-5 7-9 6-8 2 10 16 21 33v2h-9l-10-15-12-19-8-13v-2l-30 1-1 48h-7l-1-1v-109zm7 7v48l1 1h30l13-4 8-7 3-8v-12l-3-8-7-6-8-3-6-1z" fill="#150503"/>
<path transform="translate(136,675)" d="m0 0h2l-2 4-8 7-23 23-8 7-6 6 2 4 20 26 11 14 14 18 1 3h-9l-8-9-10-13-11-14-10-13-6-8-4 1-12 10-1 45-1 1h-7v-111h8l1 56 8-7 17-17 8-7 24-24z" fill="#140503"/>
<path transform="translate(966,676)" d="m0 0h65v7h-57v42h54v6l-1 1h-53v48h57v6l-6 1h-58l-1-1z" fill="#0A0303"/>
<path transform="translate(636,676)" d="m0 0h65v7h-57v42h53l1 2-1 5h-53v48h57v6l-8 1h-56l-1-1z" fill="#090303"/>
<path transform="translate(1100,676)" d="m0 0h65v7h-57v47h54v7h-54v49l-1 1h-7z" fill="#090303"/>
<path transform="translate(552,676)" d="m0 0h8v103h56l1 2v5l-7 1h-57l-1-1z" fill="#1F0703"/>
</svg>
